<?xml version="1.0" encoding="utf-8"?>
<!-- Generator: Adobe Illustrator 23.0.1, SVG Export Plug-In . SVG Version: 6.00 Build 0)  -->
<svg version="1.1" id="Layer_1" xmlns="http://www.w3.org/2000/svg" xmlns:xlink="http://www.w3.org/1999/xlink" x="0px" y="0px"
	 viewBox="0 0 1000 1000" style="enable-background:new 0 0 1000 1000;" xml:space="preserve">
<style type="text/css">
	.st0{fill-rule:evenodd;clip-rule:evenodd;}
</style>
<g>
	<path class="st0" d="M154.8,554.6c-3.2-24.5,15,1.9,11.3-30.7c2.3-12.6,4.5-52.3,22.9-52.7c16.9,4.3,9.2,39.1,10,39.3
		c-2.4,7.4,3.5,10.1,9.6,8.3c2.8-2.2,17.5-9.2,17.2-7.9c5.7,1.2,7.3,6,10.7,6.8l7.2-6.5c7.1-25.4,22.5-13.7,22.2-5.8l-0.8,16.3
		c0.6-1.3,10.7-14.7,14.1-28.2c1.9-7.5,8.5-10.1,8.5-10.2c3.3-1.7,7-1.8,11.3-0.2c4.9,4.9-1.6,22.1,4.8,21.3l4,0.2
		c0.2-0.9,6.5-4.5,7.9-5.4c0.3-1.5,0.6-3.4,2.4-3.1c7.2-35.1,10.9-81,14.4-124.7l3.9-22.3c4.6-9.8,16.3-9.8,13.6,0.5L340,441.6
		c-1,8.9,3.4,15.4-0.5,26.8c0.4,3.1,2,3.5,4.9,1c7-7.3,31-29.8,37.9-9.3l3.7,1.4c0.5-7,3.6-27.9,14.4-15.1
		c3.8,4.5,6.7,14.8,13.7,19.6c14.2,9.6,35.4-12,38.2-8.2c7.6,1,9.6,6.3,3.5,17.9c-8.5,8.6-38.3,18.6-47.3,9.1
		c-1.2-1.3-5.7-4.4-5.3-6.1c-4.6-2-7.4-2.8-8.2-2.5c-0.7,12.4-24.5,16.1-26.3,1.8l-5.3,0c-1.6,1.1-4.1,3.6-4.6,5.9
		c1.2,2.2,1.6,2.3,1.2,6.9c2.4,0.5-0.7,17.2-2.2,19.2c-4.8,10.1-17.7,5.9-16.9,1.8c-0.2-3.1-5.8-6.5-6.7,1.3
		c-9.3,57.4-6.3,88-10.8,153.6c-0.6,8.2-11.7,4.4-12.2-3.9c-2.1-40.1,5.9-104.6,7.9-133.4c-1.9-6.8-3.9-4-6.7-2.3
		c-8.1,5-17.9,2-22.5-4.6c-49.9,38.3-1,72.8-20.9,145.3l-0.8-0.2c-12,24.5-39.9,22.4-45.7-5.4c-5.5-40.8,14.6-80.1,15.8-86
		c0.6-1.5,18.5-31.8,13-33l-0.8-7.2c-10,0.3-15.4,3-29.3-0.6c-12.1,8.1-20.6,5.5-24.3,23.7c-1.5,62.8-9.4,61.6-17.5,51.7
		c-6.2-7.6,0.6-30.5,3.6-47.6c-0.8-8.2-6,5.7-10,12.1c-2.5,5.4-10,26.9-40.3,12.7c-3.9-0.7-4.7-5-2.4-13
		C152.9,577.1,165.2,566.8,154.8,554.6L154.8,554.6z M183.9,494.6c-4.2,8.3-3.7,18.3-4.4,28.3c3,9.5-3.5,7.9,7.1,6.2
		c2.3-12,2.6-23.7,2-35.3L183.9,494.6L183.9,494.6z M253.7,579.9c-1.2,6-12,19.4-16.4,64c1.1,31.7,17.3,18.8,20.4-1.1
		C260.6,624.6,258,590.4,253.7,579.9z"/>
	<path class="st0" d="M362.5,386.1c43.5-34.1,88.4-59.8,136.1-70.7c9.8,1.1,11.8,7.1,5.9,18.7c-43,9.9-90.8,36.3-141.2,71.6
		C356.7,406.3,356.4,399.8,362.5,386.1L362.5,386.1z M544,427c-11.2-15.6-24-24.7-38.1-29.5c-5.8-0.7-7.1-3.2-3.7-7.3
		c15.3-14.4,23.9-19.3,45.4-27.1c7.9-3.4-1.5-21-12.3-16.6c-31,14.3-55.8,24.3-58.2,53.3c0,7.3,5.6,12.5,16.8,15.5
		c73.4,16.9,42.5,154.3,29.7,167.5c-30.3,33-13.3-62.7-5.1-67.8c6.3-6.1-3.8-24.4-10.6-14c-44.6,83.9-3.9,143.9,34.9,83.7
		c19.9-43,19.6-117.7,6.5-146.1c-0.1-4.6,0.2-7.8,6.5-6.4c12.7,15.8,21.9,17,28.8,0.7c1.2-3.2,6.2-3.5,9.2-1.3
		c11.1,8.3,19.3,4.3,25.6-8.2c1-2.5,2.2-2.1,4.7-0.7c14.6,3.4,21.1-5.7,22-24.8c-0.3-5.2-5.5-8.9-10.2-3.7
		c-5.4,6.6-9.3,4.1-13.8-4.4c-4.1-7.7-14.7-2.5-14.8,13.8c0,3.6-5.5,4.5-5.1-0.6c5.2-15.9-14.8-19-16.9,2.6
		c0.3,7.1-15.3,26.9-6.1-1.6c1.9-17.6-18.4-14.2-25.2,8.2C553.9,413.5,547.1,432.1,544,427L544,427z"/>
	<path class="st0" d="M629.8,368.6c4.5-8.9,19.2-13.8,27.8-8.7c7.9,2.9,0,25,14.8,5.9c1.8-2.3,2.2-10.6,17.8,9.5
		c5.5,4.4,14.9-4.1,13.9-8.7c-0.4-15.8,3.6-27.2,7.6-31.7c10.6-8.4,18.3-6.2,27.9,1.9c3.3,3,5,3.7,10,20
		c10.5,18.1,80.7-12.9,107-29.1c20.5-10.9,15.5,13.8,7.8,15.7c-45.4,23.3-74.7,40.7-127.1,36.3c-7-3.5-21.1,0.1-27.5,6
		c-8.1,11-13.1,14.8-29.4,6.5c-3.4-2.8-5.1-0.9-6.4,1.2c-7,11.9-19.2,16-20.7,1.6c-0.7-6.5-3.4-21.5-11.8-16.2
		C634.7,381,625.2,373.9,629.8,368.6L629.8,368.6z M729.3,347.1c1.7,0.9,1.5,4.8-0.4,8.8c-1.9,3.9-4.9,6.4-6.6,5.6
		c-1.7-0.9-1.5-4.8,0.4-8.8C724.6,348.7,727.6,346.2,729.3,347.1L729.3,347.1z"/>
</g>
</svg>
